<svg xmlns="http://www.w3.org/2000/svg" viewBox="0 0 1280 640" width="1280" height="640">
  <defs>
    <linearGradient id="bg" x1="0" y1="0" x2="1" y2="1">
      <stop offset="0" stop-color="#1e1b4b"/>
      <stop offset="1" stop-color="#0f0a2e"/>
    </linearGradient>
  </defs>
  <rect x="0" y="0" width="1280" height="640" fill="url(#bg)"/>

  <!-- Pill mark on left -->
  <g transform="translate(80, 230)">
    <rect x="0" y="0" width="380" height="160" rx="80" ry="80" fill="#ffffff"/>
    <circle cx="62" cy="80" r="9" fill="#1e1b4b" opacity="0.35"/>
    <circle cx="98" cy="80" r="11" fill="#1e1b4b" opacity="0.65"/>
    <circle cx="138" cy="80" r="14" fill="#1e1b4b"/>
    <path d="M 168 80 L 230 80" stroke="#1e1b4b" stroke-width="6" stroke-linecap="round"/>
    <path d="M 215 65 L 235 80 L 215 95" stroke="#1e1b4b" stroke-width="6" stroke-linecap="round" stroke-linejoin="round" fill="none"/>
    <rect x="258" y="48" width="9" height="92" fill="#1e1b4b" rx="2"/>
    <rect x="280" y="62" width="55" height="6" rx="3" fill="#1e1b4b" opacity="0.5"/>
    <rect x="280" y="92" width="40" height="6" rx="3" fill="#1e1b4b" opacity="0.5"/>
    <rect x="280" y="122" width="55" height="6" rx="3" fill="#1e1b4b" opacity="0.5"/>
  </g>

  <!-- Wordmark on right -->
  <text x="520" y="310" font-family="-apple-system, SF Pro Display, system-ui, sans-serif" font-weight="700" font-size="92" fill="#ffffff" letter-spacing="-2">NotchyInput</text>
  <text x="520" y="370" font-family="-apple-system, SF Pro Text, system-ui, sans-serif" font-weight="400" font-size="32" fill="#a5b4fc" letter-spacing="2">Speak. Type. Right from the notch.</text>
  <text x="520" y="430" font-family="-apple-system, SF Mono, ui-monospace, monospace" font-weight="400" font-size="22" fill="#6366f1" letter-spacing="1">open source · macOS · on-device ASR</text>
</svg>
